<?xml version="1.0" encoding="UTF-8" standalone="no"?>
<!DOCTYPE svg PUBLIC "-//W3C//DTD SVG 1.1//EN" "http://www.w3.org/Graphics/SVG/1.1/DTD/svg11.dtd">
<svg xmlns="http://www.w3.org/2000/svg" version="1.1" viewBox="0 0 382 204" width="382.0pt" height="204.0pt">
<path d="M 0.00 0.00 L 382.00 0.00 L 382.00 204.00 L 0.00 204.00 L 0.00 0.00 Z" fill="#ffffff" />
<path d="M 165.29 20.77 C 167.47 20.78 169.65 20.78 171.83 20.78 C 171.84 27.74 171.85 34.71 171.82 41.67 C 175.09 38.04 178.35 34.39 181.65 30.77 C 184.31 30.79 186.98 30.78 189.64 30.79 C 185.95 34.98 182.20 39.12 178.49 43.29 C 182.75 47.87 186.97 52.48 191.14 57.13 C 188.44 57.13 185.74 57.12 183.03 57.13 C 179.25 53.11 175.57 48.99 171.83 44.93 C 171.84 49.00 171.85 53.06 171.81 57.13 C 169.64 57.13 167.47 57.13 165.30 57.13 C 165.27 45.01 165.29 32.89 165.29 20.77 Z" fill="#171717" />
<path d="M 201.07 20.78 C 203.25 20.78 205.43 20.78 207.61 20.77 C 207.62 32.89 207.63 45.01 207.60 57.12 C 205.43 57.13 203.26 57.13 201.09 57.13 C 201.03 45.01 201.07 32.89 201.07 20.78 Z" fill="#171717" />
<path d="M 31.68 21.62 C 33.91 21.62 36.13 21.61 38.35 21.61 C 40.11 29.13 41.60 36.74 43.65 44.18 C 45.37 36.59 47.68 29.14 49.64 21.61 C 51.59 21.62 53.53 21.62 55.48 21.62 C 57.62 29.17 59.61 36.77 61.91 44.28 C 63.37 36.69 65.26 29.17 66.88 21.61 C 69.11 21.62 71.34 21.62 73.57 21.63 C 70.81 33.44 68.27 45.31 65.49 57.13 C 63.32 57.13 61.15 57.12 58.97 57.12 C 56.91 49.47 54.61 41.87 52.67 34.18 C 50.35 41.78 48.46 49.49 46.25 57.13 C 44.09 57.13 41.93 57.13 39.77 57.13 C 37.01 45.30 34.46 33.43 31.68 21.62 Z" fill="#171717" />
<path d="M 308.21 24.07 C 309.01 25.52 310.34 27.22 310.34 28.93 C 310.14 33.52 309.53 37.94 306.71 41.72 C 306.25 39.93 305.81 38.14 305.39 36.35 C 304.72 38.08 304.77 40.92 302.86 41.77 C 298.58 44.34 294.52 47.21 290.52 50.20 C 301.00 50.42 309.45 48.34 318.55 43.25 C 318.04 44.66 317.49 46.06 316.93 47.45 C 318.31 48.00 319.69 48.55 321.07 49.09 C 314.48 50.96 308.11 50.56 300.98 51.42 C 295.63 51.89 290.77 53.08 285.83 55.19 C 292.95 55.34 300.07 55.21 307.18 55.26 C 308.04 54.17 308.91 53.07 309.78 51.99 L 311.93 53.91 L 314.54 51.71 C 314.43 54.29 314.32 56.86 314.20 59.44 C 308.46 60.24 302.71 61.02 296.96 61.70 C 293.99 62.13 290.95 62.59 288.61 64.63 C 286.57 66.48 285.83 69.44 285.37 72.06 C 284.56 76.83 283.85 81.62 283.05 86.39 C 288.73 89.59 293.50 93.81 296.35 99.77 C 302.21 111.38 299.42 126.10 289.84 134.83 C 282.09 141.95 270.72 144.19 260.72 141.16 C 253.16 138.72 246.59 133.00 243.26 125.78 C 241.96 123.11 241.57 120.53 239.47 118.56 C 236.25 115.37 232.80 112.41 229.62 109.17 C 229.63 119.82 229.67 130.47 229.60 141.11 C 224.96 141.11 220.32 141.11 215.68 141.11 C 215.54 129.95 215.89 118.76 215.46 107.60 C 208.34 112.74 201.54 118.25 194.09 122.92 C 194.07 128.36 194.22 133.80 194.08 139.24 C 194.16 140.04 193.91 140.62 193.34 140.98 C 188.98 141.23 184.46 141.30 180.12 140.88 C 179.73 137.66 179.89 134.36 179.92 131.13 C 174.76 133.71 169.56 136.18 164.27 138.46 C 164.11 139.33 163.95 140.21 163.79 141.09 C 156.69 140.64 150.03 142.54 143.01 142.99 C 133.30 143.97 123.85 142.96 114.22 141.77 C 111.25 148.34 108.19 154.87 105.21 161.44 C 100.28 161.43 95.35 161.44 90.42 161.43 C 93.87 154.02 97.25 146.54 100.57 139.06 C 94.63 137.93 88.72 136.95 82.93 135.15 C 69.87 131.35 57.69 127.60 43.87 128.11 C 43.87 131.42 43.87 134.73 43.87 138.05 C 48.04 138.72 52.09 138.64 54.55 142.68 C 50.63 142.67 46.88 142.35 43.03 143.36 C 38.10 144.40 33.87 146.79 29.02 146.68 C 24.87 146.61 20.26 147.24 16.52 145.38 C 13.44 144.01 10.72 142.01 9.39 138.80 C 8.21 135.42 8.50 131.57 10.69 128.65 C 14.78 122.68 22.66 119.77 29.30 117.72 C 29.30 100.20 29.31 82.69 29.29 65.17 C 36.53 65.21 43.78 65.02 51.00 65.30 C 55.73 65.55 61.22 66.19 65.30 68.74 C 77.63 76.25 77.82 97.86 65.08 105.12 C 58.36 109.28 51.45 108.71 43.87 108.83 C 43.87 111.41 43.87 113.98 43.86 116.56 C 62.23 116.46 79.25 120.79 96.85 125.38 C 91.39 111.90 86.11 98.33 80.64 84.85 C 85.50 84.85 90.37 84.85 95.23 84.85 C 100.11 96.50 104.86 108.19 109.77 119.82 C 115.06 108.15 120.41 96.50 125.75 84.85 C 130.63 84.85 135.51 84.85 140.40 84.85 C 133.60 99.73 126.99 114.69 120.23 129.58 C 130.53 129.95 140.38 129.56 149.92 125.25 C 149.88 115.89 149.90 106.53 149.83 97.16 C 147.46 97.17 145.08 97.16 142.70 97.17 C 142.69 93.06 142.69 88.96 142.69 84.86 C 145.08 84.85 147.47 84.85 149.85 84.84 C 149.82 77.97 149.84 71.09 149.83 64.21 C 154.59 64.21 159.35 64.21 164.11 64.21 C 164.11 71.09 164.13 77.96 164.10 84.84 C 166.87 84.86 169.65 84.84 172.42 84.86 C 172.42 88.96 172.42 93.06 172.41 97.17 C 169.64 97.18 166.87 97.15 164.10 97.17 C 164.14 104.47 164.10 111.77 164.13 119.07 C 169.56 116.31 174.76 113.17 179.89 109.88 C 179.90 94.34 179.89 78.80 179.89 63.25 C 184.63 63.25 189.38 63.23 194.12 63.28 C 194.09 72.24 194.15 81.20 194.08 90.15 C 199.16 86.28 204.38 83.25 211.01 83.38 C 215.60 83.31 219.50 85.04 223.24 87.53 C 225.42 87.68 227.63 87.37 229.54 88.44 C 234.62 91.07 239.14 95.43 243.42 99.21 C 248.74 90.38 256.99 84.34 267.42 83.34 C 267.72 78.91 268.64 74.38 268.45 69.94 C 267.98 67.20 264.73 65.79 262.73 64.20 C 257.34 60.75 255.75 52.30 258.95 46.95 C 261.10 43.57 264.22 43.31 267.78 42.45 C 272.14 41.78 272.82 36.99 276.73 34.52 C 279.21 36.14 281.71 37.86 283.98 39.78 C 282.46 39.78 280.94 39.76 279.42 39.71 C 277.87 41.32 276.32 42.91 274.70 44.45 C 274.32 41.15 275.66 39.02 276.92 36.19 C 274.85 38.60 274.01 41.68 272.12 44.17 C 270.28 45.10 268.00 45.19 266.26 46.27 C 265.25 49.07 268.36 52.97 266.99 55.91 C 266.20 57.86 263.85 59.18 262.28 60.47 C 264.70 62.62 267.52 64.05 270.13 65.89 C 273.05 68.03 271.11 72.88 272.11 75.87 C 273.83 80.63 277.14 85.77 277.81 90.99 C 278.32 94.87 277.52 98.82 274.60 101.59 C 271.28 104.90 267.18 105.25 263.29 107.26 C 261.69 110.68 260.13 115.28 259.60 119.00 C 260.42 121.81 263.43 122.95 265.73 124.29 C 268.20 121.78 270.81 119.58 272.45 116.44 C 277.58 106.73 278.50 96.73 279.73 86.04 C 280.68 79.24 280.96 72.33 284.34 66.22 C 285.85 63.54 286.83 60.88 290.19 60.19 C 296.59 58.90 303.27 59.07 309.70 57.87 C 299.38 57.39 288.99 57.85 278.65 57.70 C 279.55 55.87 280.44 54.04 281.34 52.21 C 278.08 50.50 274.85 48.76 271.61 47.02 C 275.86 44.91 280.09 42.75 284.30 40.53 L 283.47 44.72 C 285.74 42.83 286.31 41.05 286.98 38.22 C 287.86 38.46 288.75 38.70 289.63 38.94 C 291.67 35.64 293.67 32.32 295.78 29.06 C 300.75 28.81 304.15 26.60 308.21 24.07 Z" fill="#171717" />
<path d="M 109.61 35.41 C 112.04 38.54 112.28 42.02 112.56 45.81 C 105.34 45.92 98.11 45.79 90.88 45.90 C 92.30 48.42 93.07 50.83 96.15 51.66 C 99.67 52.90 102.38 51.34 105.31 49.60 C 107.13 50.42 108.94 51.26 110.75 52.10 C 105.61 58.79 95.15 59.78 89.02 53.98 C 83.71 48.90 83.80 39.14 89.02 34.02 C 94.41 28.35 105.04 28.98 109.61 35.41 Z" fill="#171717" />
<path d="M 149.28 35.70 C 151.54 38.79 151.66 42.12 152.00 45.79 C 144.78 45.94 137.55 45.78 130.33 45.90 C 131.74 48.57 132.73 51.06 135.98 51.79 C 139.42 52.82 141.98 51.16 144.84 49.57 C 146.61 50.42 148.39 51.27 150.17 52.12 C 148.03 54.22 146.15 56.26 143.16 57.09 C 138.24 58.37 132.58 57.89 128.76 54.23 C 123.00 49.05 123.09 38.95 128.77 33.75 C 134.29 28.24 144.91 29.17 149.28 35.70 Z" fill="#171717" />
<path d="M 301.08 29.76 C 303.44 30.99 305.72 32.02 308.32 32.65 C 305.62 33.54 302.54 34.32 300.76 36.73 C 298.96 39.40 298.14 42.43 295.25 44.22 C 291.18 46.63 286.56 48.21 282.14 49.84 C 285.98 44.60 291.11 40.29 295.50 35.49 C 297.42 35.06 299.34 34.63 301.26 34.21 C 301.20 32.72 301.14 31.24 301.08 29.76 Z" fill="#ffffff" />
<path d="M 218.37 30.78 C 220.63 30.79 222.90 30.79 225.16 30.79 C 227.48 36.31 229.76 41.86 231.99 47.42 C 234.53 41.87 237.00 36.29 239.61 30.77 C 241.81 30.78 244.01 30.79 246.20 30.80 C 240.78 42.77 235.30 54.72 229.84 66.67 C 227.61 66.67 225.38 66.67 223.16 66.66 C 224.95 62.82 226.70 58.96 228.45 55.11 C 225.41 47.93 222.49 40.71 219.50 33.51 C 219.13 32.60 218.75 31.69 218.37 30.78 Z" fill="#171717" />
<path d="M 289.12 37.26 C 287.44 37.74 285.80 37.87 284.07 37.77 C 285.36 35.36 287.44 34.82 289.12 37.26 Z" fill="#171717" />
<path d="M 98.94 35.81 C 102.52 35.84 104.19 38.04 106.25 40.53 C 101.25 40.78 96.23 40.75 91.22 40.59 C 93.30 37.86 95.19 35.68 98.94 35.81 Z" fill="#ffffff" />
<path d="M 138.05 35.81 C 141.71 35.72 143.61 37.93 145.65 40.57 C 140.65 40.76 135.62 40.76 130.62 40.55 C 132.73 38.02 134.40 35.80 138.05 35.81 Z" fill="#ffffff" />
<path d="M 43.86 79.35 C 47.88 79.43 52.74 78.93 56.49 80.54 C 61.69 82.88 61.78 91.22 56.61 93.62 C 52.79 95.19 47.93 94.61 43.86 94.73 C 43.87 89.61 43.87 84.48 43.86 79.35 Z" fill="#ffffff" />
<path d="M 336.01 84.12 C 342.99 82.22 350.72 83.94 355.75 89.26 C 359.68 93.24 360.57 98.58 360.62 103.96 C 360.61 116.34 360.66 128.73 360.59 141.11 C 355.91 141.10 351.23 141.11 346.55 141.11 C 346.46 130.89 346.60 120.66 346.48 110.43 C 346.27 106.84 346.22 102.15 343.72 99.30 C 340.90 95.81 335.43 95.70 331.75 97.78 C 327.56 100.30 325.47 105.22 325.24 109.96 C 324.54 120.29 325.00 130.76 324.80 141.11 C 320.13 141.11 315.46 141.11 310.79 141.11 C 310.75 122.36 310.78 103.61 310.77 84.86 C 315.47 84.85 320.16 84.85 324.86 84.86 C 324.85 86.73 324.83 88.61 324.82 90.48 C 328.35 87.80 331.62 85.28 336.01 84.12 Z" fill="#171717" />
<path d="M 237.42 97.66 C 237.36 100.18 237.15 103.01 237.83 105.45 C 238.67 108.34 240.01 111.04 240.85 113.94 C 236.92 110.25 233.39 106.12 229.70 102.20 C 229.52 100.50 229.34 98.80 229.18 97.10 C 232.44 96.29 234.39 95.82 237.42 97.66 Z" fill="#ffffff" />
<path d="M 204.91 96.46 C 208.23 96.15 211.48 97.12 213.39 99.99 C 214.18 103.05 212.52 105.37 210.29 107.23 C 207.33 109.63 204.58 112.29 201.57 114.61 C 196.96 117.78 191.71 119.81 187.20 123.21 C 180.12 128.43 172.35 132.47 164.13 135.60 C 164.11 133.57 164.08 131.54 164.04 129.50 C 168.19 130.34 171.84 131.44 175.44 128.44 C 179.75 124.59 180.97 117.48 182.20 112.11 C 187.62 113.18 194.15 114.79 198.83 110.83 C 202.39 107.49 201.66 103.51 201.75 99.09 C 202.62 98.06 203.32 96.34 204.91 96.46 Z" fill="#ffffff" />
<path d="M 263.49 97.84 C 262.81 99.90 262.23 102.18 261.05 104.01 C 259.99 105.31 257.39 105.15 255.89 105.54 C 257.95 102.07 260.12 99.98 263.49 97.84 Z" fill="#ffffff" />
<path d="M 281.11 101.46 C 286.93 108.71 286.56 120.15 279.08 126.10 C 274.94 129.48 270.10 129.57 265.05 128.73 C 268.48 126.92 271.72 125.25 274.16 122.10 C 278.89 116.24 280.03 108.68 281.11 101.46 Z" fill="#ffffff" />
<path d="M 40.49 119.07 C 42.87 120.67 45.15 122.27 48.02 122.85 C 53.74 124.10 58.85 122.67 64.33 121.16 C 67.78 125.19 71.24 128.69 76.70 129.69 C 81.92 130.77 86.38 129.11 91.12 127.19 C 91.11 129.64 91.11 132.10 91.10 134.56 C 77.41 131.54 63.83 125.66 49.99 124.74 C 44.19 124.26 38.66 125.22 32.92 125.75 C 33.16 123.79 33.34 121.81 33.64 119.85 C 35.92 119.54 38.20 119.26 40.49 119.07 Z" fill="#ffffff" />
<path d="M 23.51 122.74 C 23.26 126.56 22.36 130.26 21.81 134.03 C 21.49 136.70 23.38 139.19 25.86 140.05 C 28.79 141.09 32.15 141.36 35.22 142.01 C 29.96 143.51 24.57 144.00 19.21 142.75 C 16.20 142.02 13.18 140.28 11.71 137.46 C 10.28 134.20 12.15 130.69 14.19 128.17 C 16.59 125.16 19.89 123.72 23.51 122.74 Z" fill="#ffffff" />
<path d="M 121.53 133.57 C 127.16 135.13 131.58 139.30 137.35 140.76 C 128.23 140.92 119.31 140.16 110.39 138.26 C 113.72 135.36 116.74 132.60 121.53 133.57 Z" fill="#ffffff" />
<path d="M 150.10 134.05 C 150.13 135.81 150.16 137.56 150.19 139.31 C 147.20 139.74 144.21 140.16 141.21 140.57 C 144.67 138.94 147.42 136.75 150.10 134.05 Z" fill="#ffffff" />
<path d="M 287.12 150.13 C 290.29 148.47 293.61 151.50 292.85 154.85 C 292.19 158.20 287.60 159.09 285.70 156.30 C 284.15 154.20 284.88 151.37 287.12 150.13 Z" fill="#171717" />
<path d="M 118.41 151.40 C 124.65 151.08 130.94 151.38 137.19 151.28 C 137.19 153.43 137.19 155.57 137.19 157.72 C 133.08 157.72 128.98 157.72 124.87 157.73 C 124.87 159.78 124.87 161.83 124.87 163.88 C 128.97 163.91 133.08 163.91 137.18 163.91 C 137.19 166.07 137.19 168.23 137.20 170.40 C 133.09 170.39 128.97 170.39 124.86 170.41 C 124.87 173.47 124.87 176.54 124.86 179.60 C 128.98 179.62 133.09 179.62 137.20 179.62 C 137.19 181.78 137.19 183.94 137.19 186.10 C 130.90 186.11 124.61 186.11 118.32 186.10 C 118.39 174.55 118.18 162.95 118.41 151.40 Z" fill="#171717" />
<path d="M 148.47 160.25 C 150.91 160.25 153.34 160.25 155.78 160.25 C 157.49 162.60 159.20 164.95 160.90 167.30 C 162.58 164.94 164.28 162.59 165.97 160.24 C 168.41 160.24 170.85 160.25 173.29 160.27 C 170.34 164.25 167.47 168.30 164.54 172.30 C 167.86 176.91 171.19 181.52 174.56 186.11 C 172.12 186.11 169.69 186.11 167.25 186.11 C 165.12 183.20 163.00 180.28 160.91 177.34 C 158.82 180.16 156.97 183.23 154.61 185.82 C 152.24 186.29 149.69 186.09 147.28 186.15 C 150.62 181.55 153.91 176.93 157.26 172.34 C 154.33 168.31 151.41 164.27 148.47 160.25 Z" fill="#171717" />
<path d="M 208.93 165.05 C 211.16 168.11 211.31 171.41 211.62 175.05 C 204.40 175.12 197.17 174.91 189.96 175.20 C 191.38 177.62 192.19 179.96 195.15 180.81 C 198.80 182.11 201.46 180.48 204.52 178.73 C 206.31 179.55 208.10 180.38 209.89 181.20 C 204.90 187.68 194.76 188.71 188.61 183.40 C 182.86 178.40 182.83 168.50 188.29 163.29 C 193.85 157.66 204.43 158.49 208.93 165.05 Z" fill="#171717" />
<path d="M 222.75 160.25 C 224.67 160.25 226.59 160.25 228.51 160.24 L 228.26 162.89 C 231.28 159.95 232.35 159.42 236.68 159.66 C 236.08 161.63 235.44 163.59 234.81 165.55 C 233.78 165.36 232.75 165.16 231.72 164.96 C 230.68 166.60 229.57 167.98 229.46 170.01 C 229.05 175.35 229.39 180.75 229.28 186.11 C 227.11 186.11 224.93 186.11 222.76 186.11 C 222.75 177.49 222.76 168.87 222.75 160.25 Z" fill="#171717" />
<path d="M 262.02 159.59 C 266.66 159.67 270.11 161.99 273.29 165.12 C 271.50 166.09 269.71 167.05 267.91 168.00 C 264.52 165.83 261.15 164.52 257.20 166.30 C 252.12 168.55 251.24 175.96 255.71 179.28 C 259.83 182.06 264.25 180.80 267.98 178.07 C 269.65 179.26 271.31 180.46 272.95 181.69 C 268.89 185.47 264.59 187.31 258.96 186.64 C 251.09 186.19 245.14 178.75 246.57 170.95 C 247.79 163.58 254.81 159.09 262.02 159.59 Z" fill="#171717" />
<path d="M 285.68 160.24 C 287.86 160.24 290.04 160.24 292.22 160.24 C 292.21 168.86 292.22 177.48 292.21 186.10 C 290.04 186.10 287.86 186.11 285.69 186.11 C 285.68 177.49 285.69 168.87 285.68 160.24 Z" fill="#171717" />
<path d="M 313.00 159.56 C 316.65 159.48 319.02 161.46 321.65 163.66 C 320.31 165.01 318.97 166.35 317.63 167.69 C 316.18 166.88 314.65 165.74 313.00 165.48 C 311.90 165.90 310.82 166.38 309.78 166.94 C 312.84 169.49 316.72 170.75 319.72 173.30 C 323.52 176.82 322.34 183.64 317.59 185.73 C 312.36 188.05 307.49 186.35 303.58 182.52 C 304.90 181.06 306.22 179.61 307.54 178.16 C 309.19 179.15 311.06 180.59 313.00 180.86 C 314.33 180.66 315.57 179.65 316.74 179.02 C 314.77 176.84 312.33 175.52 309.78 174.15 C 307.02 172.59 304.63 170.41 304.52 167.01 C 304.49 162.58 308.77 159.38 313.00 159.56 Z" fill="#171717" />
<path d="M 358.14 164.90 C 360.46 167.94 360.59 171.23 360.94 174.88 C 353.71 175.25 346.52 174.89 339.30 175.16 C 340.71 177.79 341.80 180.21 344.98 180.99 C 348.47 181.96 350.95 180.33 353.84 178.72 C 355.64 179.55 357.44 180.38 359.24 181.21 C 357.06 183.30 355.19 185.33 352.17 186.14 C 347.24 187.36 341.59 186.92 337.78 183.23 C 332.18 178.23 332.20 168.70 337.44 163.45 C 342.90 157.71 353.53 158.40 358.14 164.90 Z" fill="#171717" />
<path d="M 198.01 165.15 C 201.59 165.05 203.33 167.23 205.41 169.73 C 200.39 169.99 195.34 169.95 190.32 169.78 C 192.46 167.11 194.23 164.94 198.01 165.15 Z" fill="#ffffff" />
<path d="M 346.99 165.15 C 350.75 164.92 352.57 167.10 354.68 169.78 C 349.66 169.96 344.62 169.98 339.60 169.74 C 341.68 167.23 343.41 165.07 346.99 165.15 Z" fill="#ffffff" />
</svg>